<?xml version="1.0" standalone="yes"?>

<svg version="1.1" viewBox="0.0 0.0 960.0 720.0" fill="none" stroke="none" stroke-linecap="square" stroke-miterlimit="10" xmlns="http://www.w3.org/2000/svg" xmlns:xlink="http://www.w3.org/1999/xlink"><clipPath id="p.0"><path d="m0 0l960.0 0l0 720.0l-960.0 0l0 -720.0z" clip-rule="nonzero"></path></clipPath><g clip-path="url(#p.0)"><path fill="#000000" fill-opacity="0.0" d="m0 0l960.0 0l0 720.0l-960.0 0z" fill-rule="evenodd"></path><path fill="#000000" fill-opacity="0.0" d="m44.07874 97.43307l871.8425 0l0 525.1339l-871.8425 0z" fill-rule="evenodd"></path><path stroke="#000000" stroke-width="24.0" stroke-linejoin="round" stroke-linecap="butt" d="m44.07874 97.43307l871.8425 0l0 525.1339l-871.8425 0z" fill-rule="evenodd"></path><path fill="#000000" fill-opacity="0.0" d="m44.07874 200.56693l871.8425 0l0 318.86612l-871.8425 0z" fill-rule="evenodd"></path><path fill="#000000" d="m143.73499 254.64505q21.078125 0 37.078125 9.328125q16.0 9.328125 25.0625 24.265625q1.859375 2.9375 1.859375 6.40625q0 5.0625 -4.796875 8.0q-2.125 1.0625 -4.796875 1.0625q-2.9375 0 -5.46875 -1.46875q-2.53125 -1.46875 -4.125 -4.125q-14.9375 -23.46875 -45.078125 -23.734375q-21.593742 0 -34.124992 9.0625q-12.53125 9.0625 -12.53125 25.859375q0 31.203125 50.390617 37.875q33.0625 4.796875 49.328125 20.265625q16.28125 15.46875 16.28125 40.796875q0 18.65625 -9.078125 32.265625q-9.0625 13.59375 -24.796875 20.671875q-15.734375 7.0625 -35.203125 7.0625q-25.328117 0 -44.937492 -10.796875q-19.59375 -10.8125 -28.125 -29.203125q-1.0625 -1.875 -1.0625 -4.265625q0 -3.734375 2.796875 -6.265625q2.796875 -2.53125 7.609375 -2.53125q3.1875 0 5.984375 1.734375q2.8125 1.71875 4.140625 4.921875q6.140625 12.0 20.40625 19.34375q14.265625 7.328125 33.187492 7.328125q21.875 0 35.203125 -10.53125q13.328125 -10.53125 13.328125 -29.46875q0 -16.796875 -12.40625 -28.265625q-12.390625 -11.46875 -37.1875 -14.671875q-30.921867 -3.734375 -48.656242 -19.328125q-17.734375 -15.59375 -17.734375 -38.265625q0 -16.0 8.65625 -28.125q8.671875 -12.140625 24.0 -18.671875q15.34375 -6.53125 34.796867 -6.53125zm133.3389 200.51562q0 4.265625 -2.9375 7.34375q-2.9375 3.0625 -7.46875 3.0625q-4.265625 0 -7.328125 -3.0625q-3.0625 -3.078125 -3.0625 -7.34375l0 -187.45312q0 -4.265625 3.0625 -7.328125q3.0625 -3.078125 7.328125 -3.078125q4.53125 0 7.46875 2.9375q2.9375 2.9375 2.9375 7.46875l0 90.65625l97.328094 -97.328125q3.734375 -3.734375 8.265625 -3.734375q4.53125 0 7.0625 2.671875q2.53125 2.671875 2.53125 6.671875q0 4.796875 -3.46875 8.53125l-73.0625 73.0625l73.875 100.796875q2.125 3.46875 2.125 6.390625q0 4.0 -2.796875 7.078125q-2.796875 3.0625 -6.796875 3.0625q-5.875 0 -8.796875 -4.53125l-72.53125 -98.125l-23.734344 24.0l0 68.25zm250.11288 -200.51562q30.140625 0 54.53125 13.875q24.40625 13.859375 38.140625 38.125q13.734375 24.265625 13.734375 54.65625q0 30.40625 -13.734375 54.8125q-13.734375 24.390625 -38.140625 38.265625q-24.390625 13.859375 -54.53125 13.859375q-30.390625 0 -54.65625 -13.859375q-24.265625 -13.875 -38.0 -38.265625q-13.734375 -24.40625 -13.734375 -54.8125q0 -30.390625 13.734375 -54.65625q13.734375 -24.265625 38.0 -38.125q24.265625 -13.875 54.65625 -13.875zm0 19.734375q-24.53125 0 -44.125 11.46875q-19.59375 11.453125 -30.796875 31.328125q-11.203125 19.859375 -11.203125 44.125q0 24.53125 11.203125 44.40625q11.203125 19.859375 30.796875 31.328125q19.59375 11.46875 44.125 11.46875q24.265625 0 43.859375 -11.46875q19.609375 -11.46875 30.8125 -31.328125q11.203125 -19.875 11.203125 -44.40625q0 -24.265625 -11.203125 -44.125q-11.203125 -19.875 -30.8125 -31.328125q-19.59375 -11.46875 -43.859375 -11.46875zm357.85596 -17.078125q4.265625 0 6.65625 2.8125q2.40625 2.796875 2.40625 7.0625q0 2.125 -0.796875 5.0625l-54.390625 184.53125q-1.34375 4.265625 -4.140625 6.53125q-2.796875 2.265625 -6.53125 2.265625q-3.734375 0 -6.53125 -2.390625q-2.796875 -2.40625 -3.859375 -6.140625l-43.203125 -157.59375l-42.9375 157.32812q-1.328125 4.0 -4.125 6.40625q-2.796875 2.390625 -6.53125 2.390625q-3.734375 0 -6.546875 -2.390625q-2.796875 -2.40625 -3.859375 -6.140625l-54.65625 -184.79688q-0.8125 -2.9375 -0.8125 -4.796875q0 -4.53125 2.671875 -7.328125q2.671875 -2.8125 6.9375 -2.8125q7.46875 0 10.125 8.0l46.140625 160.79688l43.71875 -156.25q0.8125 -2.9375 3.609375 -4.796875q2.796875 -1.875 6.265625 -1.875q3.46875 0 6.125 1.875q2.671875 1.859375 3.734375 5.0625l44.0 156.25l46.40625 -162.125q2.125 -6.9375 10.125 -6.9375z" fill-rule="nonzero"></path></g></svg>

